<?xml version="1.0" encoding="UTF-8" standalone="no"?>
<!-- Generator: Adobe Illustrator 13.0.1, SVG Export Plug-In . SVG Version: 6.00 Build 14948)  -->

<svg
   version="1.1"
   id="圖層_1"
   x="0px"
   y="0px"
   width="163.35698"
   height="196.51587"
   viewBox="0 0 163.35698 196.51587"
   enable-background="new 0 0 199.784 236"
   xml:space="preserve"
   sodipodi:docname="PCCU_LOGO.svg"
   inkscape:version="1.1.1 (3bf5ae0d25, 2021-09-20)"
   xmlns:inkscape="http://www.inkscape.org/namespaces/inkscape"
   xmlns:sodipodi="http://sodipodi.sourceforge.net/DTD/sodipodi-0.dtd"
   xmlns:xlink="http://www.w3.org/1999/xlink"
   xmlns="http://www.w3.org/2000/svg"
   xmlns:svg="http://www.w3.org/2000/svg"><defs
   id="defs237" /><sodipodi:namedview
   id="namedview235"
   pagecolor="#505050"
   bordercolor="#ffffff"
   borderopacity="1"
   inkscape:pageshadow="0"
   inkscape:pageopacity="0"
   inkscape:pagecheckerboard="1"
   showgrid="false"
   fit-margin-top="0"
   fit-margin-left="0"
   fit-margin-right="0"
   fit-margin-bottom="0"
   inkscape:zoom="5.0677966"
   inkscape:cx="81.692308"
   inkscape:cy="82.481605"
   inkscape:window-width="3440"
   inkscape:window-height="1411"
   inkscape:window-x="1431"
   inkscape:window-y="-9"
   inkscape:window-maximized="1"
   inkscape:current-layer="圖層_1" />
<g
   id="g232"
   transform="translate(-18.213742,-19.742133)">
	<defs
   id="defs125">
		<rect
   id="SVGID_1_"
   width="199.784"
   height="236"
   x="0"
   y="0" />
	</defs>
	<clipPath
   id="SVGID_2_">
		<use
   xlink:href="#SVGID_1_"
   overflow="visible"
   id="use127"
   x="0"
   y="0"
   width="100%"
   height="100%" />
	</clipPath>
	<path
   clip-path="url(#SVGID_2_)"
   fill-rule="evenodd"
   clip-rule="evenodd"
   fill="#39a1c1"
   d="m 91.077,19.786 c -0.604,0.004 -2.134,-0.348 -2.179,0.878 -0.045,1.225 -0.041,6.899 -0.041,6.899 0,0 -63.611,-0.012 -66.953,0.066 -3.346,0.07 -4.443,1.29 -3.183,4.084 1.339,2.978 25.767,57.927 25.767,57.927 h -4.284 v 27.398 l 10.96,0.052 c 0,0 -7.106,41.414 -7.355,42.461 -0.557,2.535 0.312,5.738 1.263,6.154 12.303,5.381 20.453,6.428 35.533,9.372 0.839,1.669 16.596,39.396 16.596,39.396 0,0 0.615,1.785 3.271,1.785 2.654,0 3.269,-1.785 3.269,-1.785 0,0 14.6,-37.727 15.441,-39.396 15.078,-2.944 23.229,-3.991 35.533,-9.372 0.947,-0.416 1.816,-3.619 1.26,-6.154 -0.248,-1.047 -6.926,-42.461 -6.926,-42.461 l 10.531,-0.052 V 89.64 h -4.285 c 26.676,-59.999 26.727,-60.049 25.771,-57.927 1.256,-2.794 0.158,-4.014 -3.184,-4.084 -3.346,-0.078 -66.953,-0.066 -66.953,-0.066 0,0 0,-5.674 -0.045,-6.899 -0.041,-1.226 -1.574,-0.874 -2.178,-0.878 z"
   id="path130" />
	<path
   clip-path="url(#SVGID_2_)"
   fill="none"
   stroke="#25221e"
   stroke-width="0"
   stroke-miterlimit="1"
   d="m 91.077,19.786 c -0.604,0.004 -2.134,-0.348 -2.179,0.878 -0.045,1.225 -0.041,6.899 -0.041,6.899 0,0 -63.611,-0.012 -66.953,0.066 -3.346,0.07 -4.443,1.29 -3.183,4.084 1.339,2.978 25.767,57.927 25.767,57.927 h -4.284 v 27.398 l 10.96,0.052 c 0,0 -7.106,41.414 -7.355,42.461 -0.557,2.535 0.312,5.738 1.263,6.154 12.303,5.381 20.453,6.428 35.533,9.372 0.839,1.669 16.596,39.396 16.596,39.396 0,0 0.615,1.785 3.271,1.785 2.654,0 3.269,-1.785 3.269,-1.785 0,0 14.6,-37.727 15.441,-39.396 15.078,-2.944 23.229,-3.991 35.533,-9.372 0.947,-0.416 1.816,-3.619 1.26,-6.154 -0.248,-1.047 -6.926,-42.461 -6.926,-42.461 l 10.531,-0.052 V 89.64 h -4.285 c 26.676,-59.999 26.727,-60.049 25.771,-57.927 1.256,-2.794 0.158,-4.014 -3.184,-4.084 -3.346,-0.078 -66.953,-0.066 -66.953,-0.066 0,0 0,-5.674 -0.045,-6.899 -0.041,-1.226 -1.574,-0.874 -2.178,-0.878 z"
   id="path132" />
	<polygon
   clip-path="url(#SVGID_2_)"
   fill="#f5c22c"
   points="92.833,24.089 107.008,24.167 107.063,36.5 92.833,36.5 "
   id="polygon134" />
	<path
   clip-path="url(#SVGID_2_)"
   fill="#f5c22c"
   d="m 107.844,40.602 c -0.516,-1.022 -0.93,-1.955 -0.93,-1.955 l -7.173,-0.094 v 0.002 l -7.087,0.095 c 0,0 -0.414,0.934 -0.929,1.952 3.201,2.031 5.97,2.031 8.101,2.054 v -0.002 c 2.125,-0.025 4.857,-0.049 8.018,-2.052"
   id="path136" />
	<path
   clip-path="url(#SVGID_2_)"
   fill="#f5c22c"
   d="m 99.966,53.895 c 7.594,-0.462 11.458,-2.989 11.458,-2.989 0,0 -2.227,-7.956 -2.773,-7.773 -2.82,0.939 -6.12,1.905 -8.752,1.941 -2.634,-0.036 -5.93,-1.002 -8.754,-1.941 -0.545,-0.183 -2.774,7.773 -2.774,7.773 0,0 3.864,2.527 11.459,2.989 v 0.014 c 0.024,-0.004 0.041,-0.004 0.069,-0.004 0.023,0 0.044,0 0.068,0.004 v -0.014 z"
   id="path138" />
	<path
   clip-path="url(#SVGID_2_)"
   fill="#f5c22c"
   d="M 144.828,117.98 H 100.54 99.845 55.557 c 0,0 -5.743,37.086 -6.976,43.756 4.313,6.447 46.823,10.971 51.611,10.563 4.789,0.408 47.298,-4.115 51.611,-10.563 -1.233,-6.67 -6.975,-43.756 -6.975,-43.756"
   id="path140" />
	
		<rect
   x="46.932999"
   y="93.216003"
   clip-path="url(#SVGID_2_)"
   fill-rule="evenodd"
   clip-rule="evenodd"
   fill="#ffffff"
   width="105.825"
   height="20.172001"
   id="rect142" />
	
		<rect
   x="46.932999"
   y="93.216003"
   clip-path="url(#SVGID_2_)"
   fill="none"
   stroke="#25221e"
   stroke-width="0"
   stroke-miterlimit="1"
   width="105.825"
   height="20.172001"
   id="rect144" />
	<path
   clip-path="url(#SVGID_2_)"
   fill="#f5c22c"
   d="m 139.088,89.875 c 0,0 -2.723,-15.813 -3.449,-19.95 -0.385,-2.172 -2.832,-4.587 -2.832,-4.587 0,0 -17.992,-11.269 -20.773,-10.742 -2.768,0.514 -8.581,2.624 -12.098,2.666 -3.514,-0.021 -9.385,-2.152 -12.165,-2.679 -2.786,-0.519 -20.775,10.752 -20.775,10.752 0,0 -2.45,2.415 -2.833,4.586 -0.731,4.134 -3.451,19.945 -3.451,19.945 l 38.882,0.17 v 0.013 z"
   id="path146" />
	<path
   clip-path="url(#SVGID_2_)"
   fill-rule="evenodd"
   clip-rule="evenodd"
   fill="#ffffff"
   d="m 110.797,31.702 h 6.904 l -4.216,9.946 c 0,0 -1.126,-2.863 -2.688,-4.946 v -5.473 z"
   id="path148" />
	<polygon
   clip-path="url(#SVGID_2_)"
   fill-rule="evenodd"
   clip-rule="evenodd"
   fill="#ffffff"
   points="115.25,46.831 123.943,31.721 130.027,31.721 118.752,51.08 116.445,49.896 "
   id="polygon150" />
	<polygon
   clip-path="url(#SVGID_2_)"
   fill-rule="evenodd"
   clip-rule="evenodd"
   fill="#ffffff"
   points="122.416,53.649 137.025,31.721 145.051,31.721 126.4,56.272 "
   id="polygon152" />
	<polygon
   clip-path="url(#SVGID_2_)"
   fill-rule="evenodd"
   clip-rule="evenodd"
   fill="#ffffff"
   points="130.23,58.003 154.072,31.801 162.1,31.801 133.541,60.365 "
   id="polygon154" />
	<path
   clip-path="url(#SVGID_2_)"
   fill-rule="evenodd"
   clip-rule="evenodd"
   fill="#ffffff"
   d="m 171.541,31.721 -33.809,31.861 c 0.703,0.864 1.563,2.122 1.838,3.343 l 28.035,-19.405 7.689,-15.799 z"
   id="path156" />
	<polygon
   clip-path="url(#SVGID_2_)"
   fill-rule="evenodd"
   clip-rule="evenodd"
   fill="#ffffff"
   points="140.67,71.455 164.699,56.452 159.127,67.405 141.375,75.702 "
   id="polygon158" />
	<polygon
   clip-path="url(#SVGID_2_)"
   fill-rule="evenodd"
   clip-rule="evenodd"
   fill="#ffffff"
   points="142.195,80.168 157.359,73.788 154.486,79.493 142.67,83.063 "
   id="polygon160" />
	<polygon
   clip-path="url(#SVGID_2_)"
   fill-rule="evenodd"
   clip-rule="evenodd"
   fill="#ffffff"
   points="143.828,89.733 143.498,86.806 151.933,85.248 149.814,89.885 "
   id="polygon162" />
	<path
   clip-path="url(#SVGID_2_)"
   fill-rule="evenodd"
   clip-rule="evenodd"
   fill="#ffffff"
   d="M 89.164,31.702 H 82.26 l 4.216,9.946 c 0,0 1.126,-2.863 2.688,-4.946 v -5.473 z"
   id="path164" />
	<polygon
   clip-path="url(#SVGID_2_)"
   fill-rule="evenodd"
   clip-rule="evenodd"
   fill="#ffffff"
   points="84.71,46.831 76.015,31.721 69.935,31.721 81.207,51.08 83.514,49.896 "
   id="polygon166" />
	<polygon
   clip-path="url(#SVGID_2_)"
   fill-rule="evenodd"
   clip-rule="evenodd"
   fill="#ffffff"
   points="77.544,53.649 62.936,31.721 54.907,31.721 73.561,56.272 "
   id="polygon168" />
	<polygon
   clip-path="url(#SVGID_2_)"
   fill-rule="evenodd"
   clip-rule="evenodd"
   fill="#ffffff"
   points="69.728,58.003 45.885,31.801 37.856,31.801 66.419,60.365 "
   id="polygon170" />
	<path
   clip-path="url(#SVGID_2_)"
   fill-rule="evenodd"
   clip-rule="evenodd"
   fill="#ffffff"
   d="m 28.421,31.721 33.805,31.861 c -0.702,0.864 -1.564,2.122 -1.838,3.343 L 32.355,47.52 24.662,31.721 Z"
   id="path172" />
	<polygon
   clip-path="url(#SVGID_2_)"
   fill-rule="evenodd"
   clip-rule="evenodd"
   fill="#ffffff"
   points="59.291,71.455 35.266,56.452 40.833,67.405 58.585,75.702 "
   id="polygon174" />
	<polygon
   clip-path="url(#SVGID_2_)"
   fill-rule="evenodd"
   clip-rule="evenodd"
   fill="#ffffff"
   points="57.765,80.168 42.601,73.788 45.472,79.493 57.291,83.063 "
   id="polygon176" />
	<polygon
   clip-path="url(#SVGID_2_)"
   fill-rule="evenodd"
   clip-rule="evenodd"
   fill="#ffffff"
   points="56.131,89.733 56.464,86.806 48.025,85.248 50.146,89.885 "
   id="polygon178" />
	<path
   clip-path="url(#SVGID_2_)"
   fill-rule="evenodd"
   clip-rule="evenodd"
   fill="#e94b29"
   d="m 75.257,77.594 c 0.002,1.75 -1.42,3.171 -3.177,3.174 -1.754,0 -3.177,-1.423 -3.177,-3.174 0,-1.76 1.424,-3.177 3.177,-3.179 1.757,0 3.177,1.421 3.177,3.179"
   id="path180" />
	<path
   clip-path="url(#SVGID_2_)"
   fill-rule="evenodd"
   clip-rule="evenodd"
   fill="#e94b29"
   d="m 85.448,77.594 c 0.001,1.751 -1.421,3.172 -3.178,3.175 -1.753,0 -3.176,-1.424 -3.176,-3.175 0,-1.759 1.423,-3.177 3.176,-3.178 1.757,0 3.178,1.42 3.178,3.178"
   id="path182" />
	<path
   clip-path="url(#SVGID_2_)"
   fill-rule="evenodd"
   clip-rule="evenodd"
   fill="#e94b29"
   d="m 95.639,77.594 c 0.001,1.752 -1.421,3.173 -3.178,3.175 -1.752,0 -3.176,-1.423 -3.176,-3.175 0,-1.758 1.424,-3.177 3.177,-3.178 1.756,0 3.177,1.421 3.177,3.178"
   id="path184" />
	<path
   clip-path="url(#SVGID_2_)"
   fill-rule="evenodd"
   clip-rule="evenodd"
   fill="#e94b29"
   d="m 105.83,77.594 c 0,1.754 -1.422,3.174 -3.179,3.175 -1.752,0 -3.176,-1.421 -3.174,-3.175 0,-1.756 1.422,-3.177 3.175,-3.177 1.756,0 3.178,1.421 3.178,3.177"
   id="path186" />
	<path
   clip-path="url(#SVGID_2_)"
   fill-rule="evenodd"
   clip-rule="evenodd"
   fill="#e94b29"
   d="m 116.021,77.595 c -0.001,1.754 -1.423,3.175 -3.181,3.175 -1.75,0 -3.176,-1.421 -3.173,-3.175 0,-1.755 1.422,-3.177 3.176,-3.177 1.756,-0.001 3.178,1.42 3.178,3.177"
   id="path188" />
	<path
   clip-path="url(#SVGID_2_)"
   fill-rule="evenodd"
   clip-rule="evenodd"
   fill="#e94b29"
   d="m 126.212,77.594 c 0,1.756 -1.422,3.176 -3.18,3.176 -1.75,0 -3.176,-1.42 -3.175,-3.176 0,-1.753 1.423,-3.176 3.177,-3.176 1.754,0 3.178,1.42 3.178,3.176"
   id="path190" />
	<path
   clip-path="url(#SVGID_2_)"
   fill="#e94b29"
   d="m 76.634,66.026 c 0,0 9.371,2.583 23.35,2.583 12.713,0 23.227,-2.727 23.227,-2.727 l 0.43,1.614 c 0,0 -12.223,2.888 -23.656,2.888 -13.725,0 -23.889,-2.791 -23.889,-2.791 z"
   id="path192" />
	<path
   clip-path="url(#SVGID_2_)"
   fill="#e94b29"
   d="m 147.426,152.84 c -0.693,0.188 -2.813,0.645 -4.557,0.832 -1.695,0.457 -4.326,0.105 -5.316,-0.457 -2.32,-1.309 -5.197,-0.557 -5.708,0.258 -0.558,0.898 2.319,1.328 2.024,2.332 -0.229,0.771 -1.977,1.361 -2.947,0.453 -4.93,-4.602 -6.668,-4.364 -10.395,-4.867 -1.584,-0.213 -9.326,-0.111 -10.502,-1.059 -1.172,-0.955 -2.705,-0.896 -3.045,-7.16 -0.08,-1.563 1.025,-1.986 1.717,-2.012 0.695,-0.027 1.932,0.559 4.619,2.758 1.271,1.041 2.449,-0.912 2.449,-0.912 0,0 2.461,-0.037 1.061,2.068 -1.398,2.102 -3.842,1.043 -5.256,0.332 -0.221,-0.109 -1.451,-0.189 -1.351,0.389 0.229,1.293 2.675,2.688 4.286,2.861 1.609,0.166 3.354,0.041 4.803,-0.059 1.451,-0.098 3.512,0.457 6.576,1.283 3.492,0.943 5.371,0.844 9.266,0.744 2.395,-0.061 4.24,1.025 6.713,0.9 1.561,-0.398 4.625,-0.768 5.045,-1.186 -0.264,-1.821 -0.42,-3.119 -0.879,-5.717 -0.336,-1.861 -2.609,-0.902 -3.777,0.262 -1.189,1.189 -1.174,0.199 -2.34,-1.434 -0.684,-0.951 -1.994,-2.799 -2.732,-2.99 -0.043,0.01 -0.521,-0.647 -2.475,-0.519 -1.076,-0.041 -1.578,0.526 -2.205,0.7 -0.719,0.57 -2.377,1.447 -2.354,2.486 0.029,1.248 1.645,3.23 0.875,3.717 -0.77,0.49 -0.922,0.805 -2.482,0.535 -1.32,-0.227 -3.621,-0.686 -3.658,-0.814 -1.143,0 -4.986,-0.389 -5.037,-3.799 -0.018,-1.07 1.664,-1.586 3.576,-0.4 1.912,1.186 1.35,2.471 2.447,2.908 1.102,0.443 2.127,-0.668 1.566,-1.959 -0.592,-1.369 -2.518,-3.321 -2.518,-3.321 0,0 -1.254,-0.784 -3.189,-1.314 -2.309,-0.611 -6.93,0.35 -6.93,0.35 0,0 -0.029,-0.03 -0.045,-0.047 -1.807,0.198 -4.148,-0.255 -4.838,-0.801 -2.145,-1.719 -3.631,-3.291 -1.67,-4.408 1.965,-1.111 4.334,0.941 5.457,0.568 1.115,-0.366 2.939,-1.014 2.494,0.093 -0.436,1.106 -1.057,0.888 -2.15,1.151 -1.094,0.258 -0.158,1.193 0.539,1.66 0.309,0.199 0.979,0.197 1.539,0.231 3.1,0.313 5.176,-0.837 5.313,-0.923 0.805,-0.531 1.432,-0.906 1.951,-2.73 0.322,-1.127 -1.158,-3.092 -0.711,-3.527 0.447,-0.444 0.623,-0.92 2.342,0.094 1.715,1.012 1.754,3.996 1.48,4.986 -0.271,0.994 -1.178,2.141 -0.93,2.805 0.182,0.494 0.973,1.108 3.151,1.108 0.913,0 2.476,-0.261 3.384,-0.78 2.584,-1.471 1.174,-2.471 -0.387,-3.773 -2.555,-2.121 3.066,-4.484 5.332,-2.73 1.171,0.906 2.396,2.186 1.795,5.439 -0.363,1.974 1.848,3.146 1.848,3.146 1.301,0.261 3.903,-1.69 3.903,-1.69 0,0 -0.659,-3.252 -1.04,-5.076 -0.65,-3.123 -2.717,-6.109 -6.117,-6.635 -1.689,-0.256 4.59,-1.764 5.338,-2.214 0.65,-0.386 -0.186,-2.442 -0.654,-2.21 -2.598,1.303 -20.836,6.814 -41.288,7.365 -0.137,0.006 -0.285,0 -0.426,0 h -0.062 c -0.141,0 -0.285,0.006 -0.428,0 -20.447,-0.551 -38.685,-6.063 -41.285,-7.365 -0.467,-0.232 -1.305,1.824 -0.652,2.21 0.748,0.45 7.027,1.958 5.335,2.214 -3.398,0.525 -5.464,3.512 -6.117,6.635 -0.38,1.824 -1.04,5.076 -1.04,5.076 0,0 2.603,1.951 3.904,1.69 0,0 2.213,-1.172 1.85,-3.146 -0.607,-3.254 0.621,-4.533 1.793,-5.439 2.265,-1.754 7.884,0.609 5.333,2.73 -1.562,1.303 -2.97,2.303 -0.391,3.773 0.912,0.52 2.471,0.78 3.384,0.78 2.179,0 2.974,-0.614 3.156,-1.108 0.246,-0.664 -0.665,-1.811 -0.936,-2.805 -0.267,-0.99 -0.229,-3.975 1.483,-4.986 1.719,-1.014 1.898,-0.538 2.343,-0.094 0.451,0.436 -1.033,2.4 -0.709,3.527 0.518,1.824 1.145,2.199 1.953,2.73 0.132,0.086 2.212,1.236 5.313,0.923 0.559,-0.034 1.228,-0.032 1.534,-0.231 0.7,-0.467 1.634,-1.402 0.541,-1.66 -1.093,-0.264 -1.714,-0.045 -2.153,-1.151 -0.441,-1.106 1.381,-0.459 2.497,-0.093 1.123,0.373 3.493,-1.68 5.455,-0.568 1.964,1.117 0.477,2.689 -1.669,4.408 -0.687,0.546 -3.031,0.999 -4.836,0.801 -0.018,0.017 -0.047,0.047 -0.047,0.047 0,0 -4.619,-0.961 -6.931,-0.35 -1.93,0.53 -3.189,1.314 -3.189,1.314 0,0 -1.923,1.952 -2.514,3.321 -0.561,1.291 0.464,2.402 1.563,1.959 1.102,-0.438 0.54,-1.723 2.447,-2.908 1.911,-1.186 3.594,-0.67 3.579,0.4 -0.05,3.41 -3.894,3.799 -5.037,3.799 -0.041,0.129 -2.341,0.588 -3.66,0.814 -1.56,0.27 -1.712,-0.045 -2.48,-0.535 -0.768,-0.486 0.842,-2.469 0.873,-3.717 0.025,-1.039 -1.639,-1.916 -2.354,-2.486 -0.627,-0.174 -1.125,-0.741 -2.207,-0.7 -1.953,-0.129 -2.429,0.528 -2.471,0.519 -0.742,0.191 -2.048,2.039 -2.732,2.99 -1.166,1.633 -1.155,2.623 -2.338,1.434 -1.17,-1.164 -3.453,-2.123 -3.778,-0.262 -0.513,2.908 -0.667,3.688 -0.929,5.51 0.59,0.625 3.535,0.994 5.092,1.393 2.475,0.125 4.316,-0.961 6.715,-0.9 3.894,0.1 5.773,0.199 9.261,-0.744 3.069,-0.826 5.129,-1.381 6.578,-1.283 1.452,0.1 3.19,0.225 4.803,0.059 1.614,-0.174 4.059,-1.568 4.282,-2.861 0.104,-0.578 -1.123,-0.498 -1.342,-0.389 -1.417,0.711 -3.86,1.77 -5.261,-0.332 -1.401,-2.105 1.06,-2.068 1.06,-2.068 0,0 1.182,1.953 2.451,0.912 2.685,-2.199 3.925,-2.785 4.618,-2.758 0.694,0.025 1.798,0.449 1.714,2.012 -0.334,6.265 -1.871,6.205 -3.043,7.16 -1.172,0.947 -8.914,0.846 -10.499,1.059 -3.726,0.503 -5.462,0.266 -10.396,4.867 -0.97,0.908 -2.72,0.318 -2.949,-0.453 -0.291,-1.004 2.584,-1.434 2.027,-2.332 -0.509,-0.814 -3.389,-1.566 -5.707,-0.258 -0.99,0.563 -3.623,0.914 -5.318,0.457 -1.742,-0.188 -3.705,-0.541 -4.398,-0.73 -0.415,2.08 -0.834,4.684 -0.834,4.684 0,0 0.271,0.328 1.906,0.561 2.27,0.324 2.321,0.061 4.674,0.703 0,0 2.103,0.932 4.906,1.869 2.842,0.949 10.555,-3.516 13.082,-2.572 1.864,0.703 5.049,0.816 6.771,0.236 l 2.338,-0.701 c 1.423,-0.693 -0.232,-1.639 -1.402,-1.639 -1.169,0 -2.211,-0.373 -3.269,-1.166 -0.936,-0.699 1.632,-1.635 4.671,-0.936 3.04,0.699 3.853,0.324 5.371,0.699 0.938,0.23 1.872,1.17 0.705,1.877 -1.843,1.115 -2.574,0.918 -3.507,1.629 -1.128,0.857 1.022,1.58 1.636,1.641 0.616,0.053 3.759,0.715 4.668,0.463 0.914,-0.258 2.575,0 2.342,-1.4 -0.233,-1.404 -2.103,-4.908 -1.867,-7.004 0.139,-1.248 0.648,-2.682 2.104,-3.268 1.166,-0.477 1.978,0.025 1.398,-2.117 -0.703,-2.566 -0.469,-4.199 -2.101,-5.127 -1.633,-0.937 -1.637,-1.178 -1.221,-2.359 0.652,-1.86 1.978,-2.085 4.252,-2.085 0.083,0 0.16,0.01 0.236,0.02 v 0.004 c 0.012,0 0.024,-0.002 0.031,-0.002 0.01,0 0.023,0.002 0.031,0.002 v -0.004 c 0.079,-0.01 0.154,-0.02 0.232,-0.02 2.28,0 3.604,0.225 4.256,2.085 0.419,1.182 0.415,1.423 -1.22,2.359 -1.636,0.928 -1.398,2.561 -2.102,5.127 -0.581,2.143 0.234,1.641 1.402,2.117 1.45,0.586 1.963,2.02 2.102,3.268 0.236,2.096 -1.635,5.6 -1.868,7.004 -0.231,1.4 1.426,1.143 2.337,1.4 0.912,0.252 4.055,-0.41 4.673,-0.463 0.616,-0.061 2.765,-0.783 1.64,-1.641 -0.936,-0.711 -1.668,-0.514 -3.512,-1.629 -1.164,-0.707 -0.23,-1.646 0.705,-1.877 1.52,-0.375 2.33,0 5.371,-0.699 3.037,-0.699 5.607,0.236 4.67,0.936 -1.055,0.793 -2.1,1.166 -3.27,1.166 -1.168,0 -2.824,0.945 -1.4,1.639 l 2.342,0.701 c 1.723,0.58 4.902,0.467 6.77,-0.236 2.523,-0.943 10.236,3.521 13.082,2.572 2.801,-0.938 4.902,-1.869 4.902,-1.869 2.355,-0.643 2.406,-0.379 4.678,-0.703 1.633,-0.232 1.957,-0.458 1.957,-0.458 0,0 -0.415,-3.469 -0.727,-4.889 m -14.647,-8.229 c 0.422,-0.891 0.174,-1.486 1.344,-1.693 1.162,-0.213 2.861,1.459 1.23,2.633 -1.636,1.166 -2.99,-0.045 -2.574,-0.94 m -67.377,0.94 c -1.635,-1.174 0.061,-2.846 1.23,-2.633 1.166,0.207 0.918,0.803 1.344,1.693 0.416,0.895 -0.938,2.106 -2.574,0.94 m 39.11,-12.386 c -0.535,0.828 -2.347,1.254 -4.136,1.191 -1.789,0.063 -3.597,-0.363 -4.136,-1.191 -0.541,-0.83 -0.363,-1.504 0.468,-1.4 0.828,0.109 2.453,0.791 3.573,0.783 0.027,0 0.064,-0.008 0.095,-0.014 0.035,0.006 0.07,0.014 0.095,0.014 1.12,0.008 2.745,-0.674 3.575,-0.783 0.828,-0.104 1.009,0.57 0.466,1.4"
   id="path194" />
	<path
   clip-path="url(#SVGID_2_)"
   fill="#ffffff"
   d="m 105.188,177.061 -9.872,0.023 -1.441,16.314 4.801,13.436 c 0,0 0.529,1.422 1.625,1.422 1.053,0 1.577,-1.449 1.577,-1.449 l 4.801,-13.436 z"
   id="path196" />
	<polygon
   clip-path="url(#SVGID_2_)"
   fill="#ffffff"
   points="90.281,187.082 91.225,176.584 86.212,176.111 "
   id="polygon198" />
	<polygon
   clip-path="url(#SVGID_2_)"
   fill="#ffffff"
   points="110.025,187.232 109.107,176.584 114.119,176.111 "
   id="polygon200" />
	<path
   clip-path="url(#SVGID_2_)"
   fill="#040000"
   d="m 131.086,109.944 c -0.857,-0.107 -1.553,-0.534 -2.305,-0.829 -0.75,-0.51 -1.635,-0.724 -2.143,-1.607 -0.777,-0.832 -1.152,-1.902 -1.875,-2.759 -0.268,-0.349 -0.59,-0.803 -0.455,-1.26 0.99,-0.24 2.01,-0.455 3,-0.696 0.214,-0.267 0.723,-0.322 0.561,-0.777 -0.105,-0.134 -0.238,-0.322 -0.4,-0.375 -0.91,-0.107 -1.528,0.564 -2.383,0.616 -0.295,0.107 -0.75,0.214 -1.045,0 0.133,-0.964 0.242,-1.928 0.348,-2.892 0.107,-0.75 0.322,-1.554 0.107,-2.33 -0.107,-0.242 -0.35,-0.162 -0.535,-0.295 -0.271,0.266 -0.617,0.508 -0.777,0.804 -0.135,0.321 -0.135,0.854 0.16,1.125 0.08,1.391 -0.107,2.812 -0.375,4.124 -0.107,0.374 -0.535,0.321 -0.883,0.347 -1.072,0.269 -2.146,-0.266 -3.162,0.109 -0.08,0.081 -0.188,0.16 -0.133,0.321 0.293,0.322 0.67,0.562 1.07,0.723 0.832,-0.053 1.607,-0.536 2.411,-0.267 0.081,0.106 0.241,0.187 0.161,0.374 -0.215,0.562 -0.51,1.098 -0.777,1.634 -0.455,1.474 -1.553,2.785 -2.732,3.883 l -0.026,0.135 0.456,-0.027 c 1.391,-0.455 2.438,-1.875 3.053,-3.187 0.188,-0.429 0.402,-0.859 0.455,-1.313 0.161,-0.239 0.295,-0.643 0.67,-0.537 0.805,0.833 1.26,1.93 1.955,2.84 0.938,1.608 2.465,2.76 4.204,3.215 0.618,0.133 1.233,-0.054 1.61,-0.509 0.053,-0.215 0.025,-0.482 -0.215,-0.59"
   id="path202" />
	<path
   clip-path="url(#SVGID_2_)"
   fill="#040000"
   d="m 147.893,102.752 h -1.795 c -0.268,0 -0.535,0.109 -0.75,-0.08 0.27,-1.715 0.27,-3.589 0.776,-5.195 l -0.052,-0.189 c -0.323,-0.295 -0.777,-0.161 -1.18,-0.106 -0.16,0.054 -0.322,0.079 -0.322,0.268 -0.16,0.507 0.402,0.507 0.563,0.856 0.215,1.179 -0.105,2.277 -0.295,3.401 -0.133,0.428 -0.105,0.965 -0.455,1.259 -0.16,-0.052 -0.24,0.081 -0.375,0.108 -0.215,0.053 -0.535,0.16 -0.643,-0.134 -0.16,-0.483 -0.188,-1.072 -0.695,-1.366 -0.75,-0.777 0.295,-1.473 0.535,-2.143 0.188,-0.723 -0.615,-0.856 -0.885,-1.286 0,-0.347 0.295,-0.615 0.51,-0.857 0.375,-0.267 0.885,-0.508 0.83,-1.044 l -0.213,-0.241 c -0.242,0.053 -0.537,-0.081 -0.725,0.107 -0.027,0.616 -0.455,1.126 -0.83,1.552 -0.16,0.054 -0.375,0.163 -0.535,0 -0.375,-0.24 -0.481,-0.936 -1.045,-0.829 -0.322,0.028 -0.215,0.428 -0.242,0.67 0.16,0.402 0.697,0.428 0.885,0.83 0.697,0.855 -0.59,1.393 -0.965,2.064 0,0.213 0.322,0.106 0.484,0.159 0.32,0.027 0.08,0.401 0.24,0.537 1.018,0.883 -0.617,1.364 -0.885,2.087 0.133,0.081 0.268,0 0.375,0 0.697,-0.079 0.643,-1.097 1.447,-0.989 0.213,0.052 0.375,0.266 0.535,0.428 0.133,0.107 0.133,0.295 0.322,0.347 -0.029,0.081 0.025,0.188 -0.055,0.268 -1.74,0.483 -3.537,0.858 -5.303,1.233 -0.59,0.401 -0.457,-0.429 -0.725,-0.616 -0.16,-0.107 -0.4,-0.081 -0.508,0.053 -0.107,0.108 0,0.267 0.053,0.402 0,0.669 -0.188,1.339 -0.135,1.981 0.055,0.109 0.135,0.244 0.297,0.244 0.133,0 0.105,-0.163 0.186,-0.216 0.027,-0.562 0.295,-1.072 0.777,-1.313 1.58,-0.374 3.133,-0.751 4.688,-1.098 1.475,-0.187 3.027,-0.75 4.555,-0.322 0.025,0.055 0.053,0.188 -0.027,0.269 -0.348,0.32 -0.695,0.509 -1.018,0.885 0,0.108 -0.162,0.214 -0.162,0.319 0.404,-0.211 0.777,-0.561 1.18,-0.829 0.562,-0.375 1.23,0 1.9,-0.107 0.161,-0.134 0.297,-0.322 0.35,-0.537 -0.187,-0.294 -0.241,-0.75 -0.668,-0.83 m -6.455,-2.196 c -0.135,-0.107 -0.295,-0.107 -0.348,-0.269 -0.35,-0.481 0.348,-0.721 0.588,-1.043 0.215,-0.056 0.321,0.107 0.51,0.161 0.107,0.187 0.107,0.427 0.107,0.67 -0.162,0.347 -0.537,0.401 -0.857,0.481"
   id="path204" />
	<path
   clip-path="url(#SVGID_2_)"
   fill="#040000"
   d="m 144.357,107.546 c -0.322,0 -0.643,0.188 -0.857,-0.16 -0.215,-0.267 -0.053,-0.617 -0.08,-0.936 0.133,-0.083 0.215,-0.297 0.402,-0.243 0.266,-0.16 0.668,-0.266 0.775,-0.642 -0.027,-0.161 -0.133,-0.242 -0.08,-0.403 -1.098,-0.375 -2.168,0.135 -3.24,0.215 -0.43,0.135 -1.047,-0.025 -1.314,0.32 -0.105,0.216 0,0.456 0.135,0.618 0.563,0.081 1.125,-0.081 1.688,-0.134 0.215,-0.028 0.535,-0.053 0.725,0.08 0.08,0.08 0.08,0.24 0,0.293 -0.645,0.189 -0.189,0.992 -0.617,1.314 -1.338,0.24 -2.625,0.214 -3.91,0.536 -0.027,0.161 -0.27,0.293 -0.08,0.454 0.133,0.296 0.535,0.109 0.775,0.216 1.072,-0.242 2.17,-0.483 3.295,-0.537 0.563,0.188 0.402,0.885 0.402,1.367 -0.16,0.537 -0.535,1.098 -1.125,1.207 -0.59,0.185 -1.313,0.105 -1.848,0.346 -0.135,0.08 -0.027,0.189 0.053,0.241 1.23,0.189 2.678,0.293 3.535,-0.75 0.322,-0.294 0.35,-0.776 0.43,-1.177 0.133,-0.51 -0.295,-1.18 0.215,-1.473 0.936,-0.082 1.875,-0.216 2.758,-0.321 0.213,-0.162 0.59,-0.08 0.67,-0.377 0.08,-0.241 -0.162,-0.188 -0.268,-0.322 -0.831,-0.051 -1.608,0.268 -2.439,0.268"
   id="path206" />
	<path
   clip-path="url(#SVGID_2_)"
   fill="#040000"
   d="m 137.74,103.074 c 0.027,-1.526 -0.188,-3.026 -0.4,-4.499 0.025,-0.215 -0.242,-0.215 -0.377,-0.162 0.27,1.447 0.43,3.027 0.537,4.474 0.08,0.028 0.08,0.321 0.24,0.187"
   id="path208" />
	<path
   clip-path="url(#SVGID_2_)"
   fill="#040000"
   d="m 138.732,103.208 0.08,0.214 c 0.213,-0.08 0.188,-0.321 0.295,-0.483 0.16,-1.74 -0.027,-3.481 -0.215,-5.141 l -0.135,-0.295 c -0.32,-0.081 -0.158,0.295 -0.295,0.428 0.19,1.742 0.323,3.456 0.27,5.277"
   id="path210" />
	<path
   clip-path="url(#SVGID_2_)"
   fill="#040000"
   d="m 143.635,99.941 c -0.135,0.508 -0.055,1.096 -0.082,1.633 0.162,0.187 0.027,0.536 0.135,0.724 0.348,-0.295 0.24,-0.831 0.32,-1.261 0.107,-0.293 0.027,-0.667 0.055,-0.99 0,-0.266 0.053,-0.616 -0.188,-0.749 -0.375,0 -0.187,0.428 -0.24,0.643"
   id="path212" />
	<path
   clip-path="url(#SVGID_2_)"
   fill="#040000"
   d="m 61.859,100.434 c 0.08,-0.669 -0.83,-0.456 -0.856,-1.124 -0.162,-0.134 -0.375,0 -0.589,-0.029 -0.671,0.564 -1.635,0.672 -2.545,0.591 -0.109,-0.027 -0.243,-0.16 -0.268,-0.269 -0.029,-0.802 0.107,-1.606 -0.055,-2.355 l 0.108,-1.501 -0.135,-0.295 -0.213,-0.268 c -0.107,-0.08 -0.296,0.055 -0.402,-0.107 -0.108,0 -0.348,-0.079 -0.403,0.054 -0.481,0.026 -0.562,0.536 -0.776,0.803 -0.268,0.617 0.214,0.992 0.402,1.473 0.107,0.858 0.027,1.793 0.054,2.68 l -0.215,0.267 c -0.402,0.268 -0.99,0.242 -1.5,0.188 -0.187,0.133 -0.455,0.16 -0.455,0.428 0,0.268 -0.053,0.644 0.134,0.858 0.616,0.053 1.259,-0.029 1.875,-0.082 0.187,0.082 0.294,0.268 0.349,0.455 0.025,0.563 0.107,1.233 -0.295,1.555 -0.563,0.268 -1.178,0.376 -1.849,0.376 -0.669,-0.136 -0.562,-0.912 -0.749,-1.42 0.025,-0.645 -0.482,-1.046 -0.751,-1.528 -0.375,-0.322 -0.858,-0.588 -1.366,-0.375 -0.188,0.08 -0.268,0.268 -0.295,0.454 0.081,0.244 0.107,0.591 0.402,0.671 0.16,0.107 0.295,0.241 0.455,0.322 0.67,0.803 0.804,1.848 1.153,2.786 0.106,0.322 0.16,0.748 0.537,0.884 0.212,0.08 0.48,0 0.56,-0.216 0.51,-0.053 0.83,-0.321 1.367,-0.213 0.161,0.134 0.376,0.213 0.454,0.429 0.377,2.035 0.189,4.366 0.162,6.481 l 0.135,0.241 c 0.159,0.161 0.427,0.134 0.615,0.081 0.51,-0.349 0.697,-0.992 0.777,-1.581 -0.187,-1.875 -0.296,-3.857 -0.162,-5.759 0.107,-0.025 0.107,-0.16 0.162,-0.24 0.108,-0.215 0.295,-0.428 0.562,-0.401 0.643,-0.135 1.421,-0.054 1.982,-0.376 0.214,-0.295 0.483,-0.696 0.349,-1.126 -0.108,-0.187 -0.349,-0.213 -0.455,-0.428 -0.054,-0.241 0.106,-0.375 0.16,-0.589 0.509,-0.696 1.634,-0.803 1.58,-1.795 m -3.214,1.849 c -0.135,0.16 -0.321,0.349 -0.509,0.429 -0.188,0.026 -0.376,0 -0.455,-0.16 -0.027,-0.216 -0.162,-0.431 -0.08,-0.671 0.375,-0.455 1.018,-0.455 1.526,-0.669 0.08,0.026 0.189,0.026 0.189,0.132 0.025,0.402 -0.511,0.59 -0.671,0.939"
   id="path214" />
	<path
   clip-path="url(#SVGID_2_)"
   fill="#040000"
   d="m 76.939,105.264 c 0.241,-0.696 0.188,-1.5 0.134,-2.277 -0.107,-0.374 -0.134,-0.911 -0.51,-1.07 -0.132,0.776 -0.186,1.606 -0.159,2.461 l -0.162,0.216 c -0.294,0.134 -0.455,-0.134 -0.615,-0.293 -0.349,-1.019 -0.535,-2.062 -0.805,-3.108 0,-0.349 0.27,-0.67 0.082,-0.991 -0.429,-0.187 -0.402,-0.697 -0.724,-0.937 -0.267,0 -0.508,0.054 -0.67,0.293 -0.213,0.295 0.107,0.805 -0.241,1.047 -0.215,0.132 -0.455,0.159 -0.67,0.239 -0.722,0.081 -1.472,0.054 -2.17,0.189 -0.212,0.08 -0.24,0.319 -0.294,0.509 0.082,0.16 0.135,0.426 0.349,0.482 0.723,0.161 1.42,-0.107 2.197,0 0.107,0.027 0.373,0.135 0.268,0.347 -0.189,0.134 -0.297,0.376 -0.536,0.402 -0.296,0.214 -0.777,0.134 -1.046,-0.053 -0.24,-0.107 -0.428,-0.349 -0.723,-0.24 0.027,0.079 -0.053,0.267 0.053,0.347 0.322,0.187 0.777,0.267 0.885,0.642 -0.375,0.617 -1.34,0.751 -1.045,1.581 0.723,-0.027 1.392,-0.562 2.17,-0.349 0.16,0.082 0.107,0.243 0.081,0.349 -0.563,0.643 -1.179,1.179 -1.849,1.607 -0.375,0.107 -0.482,0.455 -0.51,0.804 -0.025,0.322 0.215,0.401 0.484,0.347 0.857,-0.24 1.714,-0.482 2.571,-0.749 0.67,-0.136 1.179,-0.965 1.902,-0.75 0.134,0.053 0.214,0.161 0.188,0.321 -0.992,0.883 -2.037,1.607 -3.295,1.955 -0.295,0.375 -1.072,0.777 -0.751,1.42 1.206,0.026 2.251,-0.106 3.401,-0.186 0.618,-0.055 1.313,-0.161 1.877,0.026 0.133,-0.026 0.079,-0.187 0.16,-0.241 0,-0.805 0.107,-1.768 -0.242,-2.492 -0.266,-0.563 -0.131,-1.337 0.215,-1.848 m -3.561,-2.92 c 0.267,-0.053 0.615,-0.508 0.83,-0.053 v 0.456 c -0.322,0.455 -0.884,0.402 -1.34,0.402 -0.133,-0.376 0.242,-0.616 0.51,-0.805 m 1.42,3.135 c -0.698,0.159 -1.287,0.644 -2.037,0.615 -0.079,-0.08 -0.053,-0.24 0.028,-0.319 0.722,-0.322 0.749,-1.262 1.501,-1.607 0.158,-0.056 0.347,-0.056 0.508,0 0.107,0.16 0.214,0.32 0.322,0.48 -0.027,0.296 0.079,0.723 -0.322,0.831 m 1.151,2.544 c -0.428,0.134 -0.911,0.214 -1.394,0.242 -0.32,-0.349 0.268,-0.295 0.35,-0.537 0.188,-0.295 0.429,-0.239 0.696,-0.347 0.187,0.052 0.348,0.16 0.454,0.347 0.028,0.134 -0.079,0.215 -0.106,0.295"
   id="path216" />
	<path
   clip-path="url(#SVGID_2_)"
   fill="#040000"
   d="m 79.19,96.721 c -0.215,-0.457 -0.776,-0.27 -1.205,-0.323 -1.635,0.348 -3.268,0.67 -4.93,0.911 -0.32,0.108 -0.775,0.108 -0.857,0.535 -0.08,0.295 -0.133,0.697 0.107,0.938 0.109,0.161 0.323,0.133 0.484,0.161 l 4.392,-0.858 0.267,0.054 c 0.187,0.08 0.135,0.268 0.242,0.402 0.295,3.402 0.617,6.883 0.563,10.367 l -0.243,0.482 c 0.029,0.455 -0.025,1.016 0.35,1.393 0.214,0.078 0.455,0.053 0.67,0 0.455,-0.295 0.508,-0.778 0.615,-1.234 -0.16,-3.48 -0.428,-6.936 -0.588,-10.419 -0.027,-0.856 0.321,-1.581 0.133,-2.409"
   id="path218" />
	<path
   clip-path="url(#SVGID_2_)"
   fill="#040000"
   d="m 76.511,100.925 c 0.161,0.134 0.269,-0.053 0.401,-0.081 0.135,-0.507 -0.105,-0.883 -0.293,-1.259 -0.162,-0.187 -0.377,-0.266 -0.617,-0.24 -0.107,0.16 -0.267,0.186 -0.347,0.348 -0.403,0.776 0.722,0.617 0.856,1.232"
   id="path220" />
	<path
   clip-path="url(#SVGID_2_)"
   fill="#040000"
   d="m 69.305,100.095 c 0.081,-0.214 0.053,-0.481 -0.025,-0.697 -0.375,-0.159 -0.563,-0.991 -1.045,-0.535 -0.241,0.052 -0.376,0.376 -0.59,0.535 -0.294,0.428 0.429,0.483 0.482,0.856 0.482,2.84 0.348,5.947 0.403,8.947 l -0.188,1.42 c 0.08,0.294 0.107,0.724 0.508,0.804 0.187,-0.107 0.508,-0.08 0.562,-0.349 -0.054,-1.955 -0.107,-3.91 -0.08,-5.893 0.08,-1.74 -0.267,-3.427 -0.027,-5.088"
   id="path222" />
	<path
   clip-path="url(#SVGID_2_)"
   fill="#040000"
   d="m 104.995,101.657 c 0.616,-0.804 1.125,-1.579 1.528,-2.464 0.16,-0.509 -0.028,-0.992 -0.295,-1.367 l -0.215,-0.134 c -1.178,-0.187 -0.402,1.233 -0.83,1.769 -0.91,2.223 -2.572,4.339 -4.473,6.052 l -0.054,0.456 c 0.885,0 1.26,-0.749 1.848,-1.232 0.51,-0.429 0.67,-1.206 1.393,-1.259 0.135,0.242 0.242,0.482 0.214,0.777 -0.079,1.339 -0.026,2.787 -0.267,4.044 0,0.561 -0.242,0.992 -0.188,1.553 0.054,0.19 0.269,0.242 0.35,0.296 0.4,-0.189 0.884,-0.536 0.937,-1.046 0.027,-0.99 -0.106,-1.901 -0.188,-2.838 l 0.026,-3.161 c -0.053,-0.509 0.028,-1.019 0.214,-1.446"
   id="path224" />
	<path
   clip-path="url(#SVGID_2_)"
   fill="#040000"
   d="m 114.398,105.727 c -0.35,0.563 -0.188,1.395 -0.803,1.769 -0.617,0.428 -1.395,0.294 -2.197,0.322 -0.537,-0.028 -1.021,-0.242 -1.5,-0.376 -0.375,-0.241 -0.508,-0.695 -0.643,-1.098 0,-0.643 -0.295,-1.393 0.053,-1.982 1.098,-1.099 1.982,-2.198 2.813,-3.374 0.268,-0.617 0.91,-1.206 0.91,-1.956 -0.24,-0.428 -0.615,-0.484 -1.043,-0.457 -0.482,0.029 -0.779,0.538 -0.938,0.912 -0.055,0.322 0.133,0.535 0.133,0.803 -0.133,0.563 -0.51,1.044 -0.83,1.527 -0.348,0.321 -0.51,0.858 -0.963,1.098 -0.513,-0.133 -0.322,-0.723 -0.457,-1.098 -0.188,-0.483 0.24,-1.232 -0.295,-1.501 -0.588,-0.294 -0.75,0.537 -1.098,0.831 -0.133,0.348 0,0.723 0.133,1.045 0.189,0.536 0.162,1.152 0.162,1.741 -0.189,1.394 -1.768,1.741 -2.492,2.759 l 0.135,0.16 c 0.455,-0.053 0.885,-0.186 1.23,-0.508 0.35,-0.188 0.617,-0.643 1.1,-0.563 0.482,0.59 0.242,1.475 0.563,2.143 0.322,1.204 1.688,1.125 2.68,1.366 1.498,-0.053 3.293,0.027 4.098,-1.5 0,-0.642 -0.32,-1.232 -0.455,-1.876 -0.055,-0.133 -0.188,-0.133 -0.296,-0.187"
   id="path226" />
	<path
   clip-path="url(#SVGID_2_)"
   fill="#040000"
   d="m 89.287,98.335 c 0.267,0.457 -0.296,0.59 -0.269,0.99 l 0.456,-0.133 c 0.429,-0.4 1.179,-0.322 1.5,-0.83 0.081,-0.322 0.294,-0.722 0.027,-1.017 -0.215,-0.617 -1.151,-0.24 -1.714,-0.35 -0.269,0.19 -0.67,0.135 -0.831,0.457 0.135,0.455 0.617,0.455 0.831,0.883"
   id="path228" />
	<path
   clip-path="url(#SVGID_2_)"
   fill="#040000"
   d="m 90.813,106.88 c -0.158,-0.094 -0.494,-0.324 -0.484,-0.389 0.033,-0.187 0.052,-0.216 0.108,-0.361 0.697,-1.205 0.938,-2.598 0.911,-4.125 l 0.135,-0.215 c 0.696,-0.24 1.446,-0.455 2.088,-0.75 0.402,-0.242 0.992,-0.535 0.992,-1.097 -0.24,-0.348 -0.83,-0.268 -1.205,-0.215 -2.25,0.965 -4.475,2.037 -7.126,2.037 -0.695,0.08 -1.392,-0.108 -2.116,0.025 -0.053,0.455 0.322,0.778 0.402,1.178 0.402,0.189 0.777,0.295 1.179,0.484 0.937,0 1.714,-0.484 2.625,-0.562 0.402,-0.108 1.044,-0.268 1.392,0.078 0.376,0.322 0.189,0.885 0.189,1.314 -0.026,0.141 -0.082,0.657 -0.236,1.059 -0.11,0.295 -0.078,0.252 -0.33,0.74 0,0 -0.796,-0.562 -0.997,-0.693 -0.373,-0.246 -0.768,-0.504 -1.117,-0.785 -0.133,-0.106 -0.375,0.027 -0.482,-0.106 -0.454,-0.027 -0.963,0 -1.285,0.348 0.241,0.562 0.946,0.789 1.447,1.099 0.56,0.342 1.207,0.801 1.553,1.067 0.198,0.156 0.252,0.236 0.252,0.236 0,0 -0.198,0.317 -0.629,0.766 -0.883,0.92 -3.088,1.933 -3.588,2.349 -0.107,0.133 -0.16,0.323 -0.027,0.481 1.635,-0.533 3.322,-1.176 4.581,-2.518 0.149,-0.121 0.544,-0.525 0.544,-0.525 0,0 0.693,0.488 1.117,0.767 0.802,0.456 1.447,1.126 2.357,1.368 1.18,0.267 2.464,0.32 3.724,0.185 0.348,-0.238 0.535,-0.75 0.616,-1.177 -0.751,-0.053 -1.5,-0.161 -2.197,-0.321 -1.58,-0.297 -2.973,-1.018 -4.393,-1.742"
   id="path230" />
</g>
</svg>
